# xmcd CD database file
# Generated: Thu Oct 11 12:57:58 2001 by KSCD
# 
# Track frame offsets:
#       150
#       13545
#       24795
#       46062
#       63582
#       88260
#       104120
#       129612
#       142477
#       155672
#       170692
#       180612
#       193362
#       204150
#       218867
#       235335
#       251982
#
# Disc length: 3544 seconds
#
# Revision: 1
# Processed by: cddbd v1.4PL0 Copyright (c) Steve Scherf et al.
# Submitted via: Kscd 1.3.2
#
DISCID=050dd611
DTITLE=Sugar Hill Records/Sugar Hill-O-Ween
DYEAR=1900
DGENRE=
TTITLE0=Howlin' at the moon
TTITLE1=Poor Ellen Smith
TTITLE2=Men with Guns
TTITLE3=Perfume, Powder and Lead
TTITLE4=Don't Take Your Guns to Town
TTITLE5=The Dark End of the Street
TTITLE6=Love Like Blood
TTITLE7=Worried Blues
TTITLE8=Angel of Death
TTITLE9=I'm Convicted
TTITLE10=Things Invisible
TTITLE11=All Alone
TTITLE12=Diamond Joe
TTITLE13=It Hurts to Know
TTITLE14=I'm Still Alive
TTITLE15=Last Words
TTITLE16=Your Haunting Goodbye
EXTD=
EXTT0=
EXTT1=
EXTT2=
EXTT3=
EXTT4=
EXTT5=
EXTT6=
EXTT7=
EXTT8=
EXTT9=
EXTT10=
EXTT11=
EXTT12=
EXTT13=
EXTT14=
EXTT15=
EXTT16=
PLAYORDER=
